<svg xmlns="http://www.w3.org/2000/svg" width="51" height="51" viewBox="0 0 51 51"><g transform="translate(-1403 -324)"><circle cx="25.5" cy="25.5" r="25.5" transform="translate(1403 324)" fill="#4a5ce4"/><path d="M28.656,15.466c0,8.309-5.69,14.222-14.093,14.222a14.563,14.563,0,1,1,0-29.126,14,14,0,0,1,9.765,3.811L20.365,8.185c-5.185-5-14.827-1.245-14.827,6.941a9.122,9.122,0,0,0,9.026,9.2c5.766,0,7.927-4.134,8.268-6.277H14.563V13.035H28.427A12.767,12.767,0,0,1,28.656,15.466Z" transform="translate(1414.172 334.374)" fill="#e9edf0"/></g></svg>