<svg xmlns="http://www.w3.org/2000/svg" width="51" height="51" viewBox="0 0 51 51"><g transform="translate(-1488 -324)"><circle cx="25.5" cy="25.5" r="25.5" transform="translate(1488 324)" fill="#4a5ce4"/><path d="M5.565,24.863H.411V8.264H5.565ZM2.985,6A3,3,0,1,1,5.97,2.986,3.01,3.01,0,0,1,2.985,6ZM24.857,24.863H19.714v-8.08c0-1.926-.039-4.4-2.68-4.4-2.68,0-3.091,2.092-3.091,4.257v8.219H8.794V8.264h4.944v2.264h.072a5.416,5.416,0,0,1,4.877-2.681c5.217,0,6.176,3.435,6.176,7.9v9.118Z" transform="translate(1501.068 334.936)" fill="#e9edf0"/></g></svg>